# xmcd
# Copyright (c) 1998 CDDB Inc.
#
# Track frame offsets:
#	150
#	16469
#	31257
#	49298
#	63152
#	86168
#	103020
#	120392
#	145923
#	165617
#	186886
#	205091
#	218169
#	233915
#	252972
#	268409
#	285177
#	310950
#
# Disc length: 4395 seconds
#
# Revision: 0
# Processed by: cddbd v1.4PL0 Copyright (c) Steve Scherf et al.
# Submitted via: audiograbber 1.70
#
DISCID=03112912
DTITLE=Радио Шансон - Звёзды шансона
DYEAR=1900
DGENRE=
TTITLE0=Таня Тишинская - Золотая ручка
TTITLE1=Иван Кучин - Жиганская душа
TTITLE2=Слава Исетский мл. - От бухты Цемесской (сон жигана)
TTITLE3=Михаил Круг - Ярославская
TTITLE4=Танечка Треф - Слеза упала
TTITLE5=Михаил шуфутинский - Тополя
TTITLE6=Гарик Кричевский - Автобан
TTITLE7=Катя Огонёк - Любовь
TTITLE8=Слава Бобков - За запретной полосой
TTITLE9=Слава Исетский мл. - Марго
TTITLE10=Александр Новиков - Красивоглазая
TTITLE11=Ира Ежова - Лунная соната
TTITLE12=Виктор Петлюра - Здравствуй, мама
TTITLE13=Владимир Асмолов - Грустная нескладушка
TTITLE14=Сергей Дикий - Белая песня
TTITLE15=Геннадий Жаров - Дамы пиковой блюз
TTITLE16=Григорий Лепс - Расскажи
TTITLE17=Анатолий Полотно - Постоялец катрана
EXTD=
EXTT0=
EXTT1=
EXTT2=
EXTT3=
EXTT4=
EXTT5=
EXTT6=
EXTT7=
EXTT8=
EXTT9=
EXTT10=
EXTT11=
EXTT12=
EXTT13=
EXTT14=
EXTT15=
EXTT16=
EXTT17=
PLAYORDER=
